<svg viewBox="0 0 120 120" xmlns="http://www.w3.org/2000/svg">
  <defs>
    <linearGradient id="g" x1="0" y1="0" x2="1" y2="1">
      <stop offset="0%" stop-color="#3b82f6"/>
      <stop offset="100%" stop-color="#0ea5e9"/>
    </linearGradient>
  </defs>
  <circle cx="60" cy="60" r="56" fill="url(#g)"/>
  <path d="M58 30a14 14 0 1 1-28 0 14 14 0 0 1 28 0Zm32 16a10 10 0 1 1-20 0 10 10 0 0 1 20 0Zm-58 0a10 10 0 1 1-20 0 10 10 0 0 1 20 0Zm14 34c-14 0-26 6-26 14v4h52v-4c0-8-12-14-26-14Z" fill="#fff"/>
</svg>
